<svg id="Layer_1" data-name="Layer 1" xmlns="http://www.w3.org/2000/svg" viewBox="0 0 138.9 22.92"><title>logo</title><path d="M232.79,414.83a1.24,1.24,0,0,1,1.41,1.38c0,1-.78,2.79-1.2,2.79s-.51-.27-1.23-.27a3.49,3.49,0,0,0-2.61,1.53c-.33,3.93-1,9.6-1,9.6-.06.63-.72,1-1.89,1h-.84c-1.2,0-1.71-.45-1.71-.93l1-9.84c.09-.87.12-1.62.12-2.13,0-.72-.06-1.23-.06-1.68,0-.66,1.53-1.08,3.48-1.08.81,0,.87.87,1,2A4.29,4.29,0,0,1,232.79,414.83Z" transform="translate(-223.76 -408.11)" style="fill:#023f5d"/><path d="M245.72,426.17c.12,0,.24,0,.24.42a21.57,21.57,0,0,1-.24,2.31c-.48,1.65-3.57,2.1-5.22,2.1-4.89,0-7.08-2.55-7.08-6.6,0-6.93,3.81-9.57,8.25-9.57,4.89,0,5.82,2.79,5.82,4.35,0,4-3.48,5.49-6.45,5.49a21.19,21.19,0,0,1-3.12-.21c.12,2.46,1.38,3,3.15,3C243.47,427.49,245.39,426.17,245.72,426.17Zm-7.59-4.47h1.44c2.82,0,3.6-1.08,3.6-2s-.75-1.41-1.8-1.41C239.51,418.34,238.55,419.84,238.13,421.7Z" transform="translate(-223.76 -408.11)" style="fill:#023f5d"/><path d="M249.65,418.58H249c-.54,0-.78-.33-.78-1.08,0-1.38.27-2.43,1.14-2.43h.6l.3-2.85c.06-.63.72-1,1.89-1H253c1.2,0,1.71.45,1.71.93l-.3,2.88h1.77c.42,0,.48.18.48.6,0,1.11-.57,2.91-1.74,2.91h-.87s-.84,7.83-.84,7.92c0,.69.27,1,.9,1a6.3,6.3,0,0,0,1.14-.18c.18,0,.24.06.24.33a14.11,14.11,0,0,1-.21,1.8c-.18,1.11-1.59,1.56-2.64,1.56-2.4,0-3.9-1.2-3.9-4C248.78,426.35,249.65,418.58,249.65,418.58Z" transform="translate(-223.76 -408.11)" style="fill:#023f5d"/><path d="M266.12,428.75A5,5,0,0,1,262,431c-2.91,0-4.86-2.28-4.86-6.51,0-5.76,2.73-9.66,6.66-9.66a5.41,5.41,0,0,1,3.63,1.59c.33-1.08.42-1.38,1.95-1.41h.36c1.2,0,1.74.27,1.74.75,0,.12-1.11,10.23-1.11,10.74,0,.69.27,1,.9,1a4.07,4.07,0,0,0,.87-.18c.18,0,.24.06.24.33a14.22,14.22,0,0,1-.21,1.8c-.18,1.11-1.59,1.56-2.64,1.56C267.74,431,266.54,430.34,266.12,428.75Zm-.06-3.09c.48-5.34.36-4.41.78-6.48a2.91,2.91,0,0,0-2-.81c-2,0-3.18,2-3.18,5.88,0,2.07.66,3.15,2,3.15A3.12,3.12,0,0,0,266.06,425.66Z" transform="translate(-223.76 -408.11)" style="fill:#023f5d"/><path d="M274.82,416c.06-.63.72-1,1.89-1h.84c1.2,0,1.71.45,1.71.93,0,0-1.11,10.26-1.11,10.56,0,.69.27,1,.9,1a4.08,4.08,0,0,0,.87-.18c.18,0,.24.06.24.33a14.11,14.11,0,0,1-.21,1.8c-.18,1.11-1.59,1.56-2.64,1.56-2.34,0-3.63-1.11-3.63-3.81C273.68,426.35,274.82,416,274.82,416Zm4.89-4.44c-.06.63-.72,1-1.89,1H277c-1.2,0-1.71-.45-1.71-.93l.27-2.46c.06-.63.72-1,1.89-1h.84c1.2,0,1.71.45,1.71.93Z" transform="translate(-223.76 -408.11)" style="fill:#023f5d"/><path d="M283.64,409c.09-.6.45-.9,1.56-.9h1.44c1.08,0,1.41.33,1.41.81,0,0-1.83,17.46-1.83,17.58,0,.69.27,1,.9,1a4.07,4.07,0,0,0,.87-.18c.18,0,.24.06.24.33a14.11,14.11,0,0,1-.21,1.8c-.18,1.11-1.59,1.56-2.64,1.56-2.34,0-3.63-1.11-3.63-3.81C281.75,426.26,283.64,409,283.64,409Z" transform="translate(-223.76 -408.11)" style="fill:#023f5d"/><path d="M292.79,430.82h-.12c-.81,0-1.14-.27-1.14-.63,0,0,1.32-11.7,1.32-13.14,0-.72,0-.84,0-1,0-.66,1.47-.69,1.68-.69s.78.09.78,2.25a2,2,0,0,1,0,.3c1-1.86,2.46-3,4-3,.6,0,1.5.21,1.5,1.14,0,.75-.51,1.68-.87,1.68s-.39-.33-1.17-.33c-1.11,0-2.76.93-3.81,4.74-.39,3.84-.84,8-.84,8C294,430.58,293.57,430.82,292.79,430.82Z" transform="translate(-223.76 -408.11)" style="fill:#19addd"/><path d="M308.12,414.89c3.93,0,6,2.28,6,6.51,0,6.21-2.94,9.54-7.74,9.54-4.08,0-6.21-2.25-6.21-6.45C300.2,419.51,302.48,414.89,308.12,414.89Zm3.42,6.57c0-3-1.2-4.41-3.75-4.41-3.3,0-5,2.85-5,7.35,0,3,1.23,4.38,3.78,4.38C309.77,428.78,311.54,426.23,311.54,421.46Z" transform="translate(-223.76 -408.11)" style="fill:#19addd"/><path d="M326.27,429.56c-.24,1.2-3.33,1.38-4.26,1.38-4.23,0-6.48-1.83-6.48-6.3,0-5.16,2.16-9.75,7.92-9.75,2.73,0,4.2.93,4.2,1.56,0,.39-.66,1.5-1.17,1.5a5.75,5.75,0,0,0-3.33-.9c-2.79,0-5,2-5,7.41,0,3,1.26,4.32,4.08,4.32a10.26,10.26,0,0,0,4-.93c.12,0,.18,0,.18.36A9.38,9.38,0,0,1,326.27,429.56Z" transform="translate(-223.76 -408.11)" style="fill:#19addd"/><path d="M338.09,415.43a2.33,2.33,0,0,1,1.62-.42h.12c.69,0,1,.18,1,.36a1.06,1.06,0,0,1-.36.63l-6.54,6.6,6,7.32a.86.86,0,0,1,.21.42c0,.39-.36.48-1.35.48h-.12c-.66,0-1.32,0-1.59-.39l-5.88-7.11h-.12l-.72,6.84c-.06.42-.42.66-1.26.66H329c-.87,0-1.14-.24-1.14-.66l2.25-21.3c0-.42.39-.66,1.26-.66h.12c.87,0,1.14.24,1.14.66l-1.41,13.41h.12Z" transform="translate(-223.76 -408.11)" style="fill:#19addd"/><path d="M352.52,427.31c.12,0,.21,0,.21.36a9.38,9.38,0,0,1-.15,1.35c-.27,1.41-3.63,1.92-4.92,1.92-3,0-6.78-.84-6.78-6.21s2.37-9.84,8.25-9.84c3.78,0,5,2.46,5,4,0,4.17-4,5.49-8.1,5.49a13.84,13.84,0,0,1-2.58-.21v.3c0,3.33,1.74,4.32,4.38,4.32S352.1,427.31,352.52,427.31Zm-8.88-5.1h2.13c.87,0,5.79,0,5.79-3.09,0-1.11-1-2.07-2.7-2.07C345.38,417,344,419.42,343.64,422.21Z" transform="translate(-223.76 -408.11)" style="fill:#19addd"/><path d="M357.47,411.92c.06-.48.45-.66,1.23-.66h.12c.84,0,1.14.21,1.14.66l-.33,3.15h2.55c.36,0,.48.15.48.57,0,.12-.21,1.59-1.35,1.59h-1.92s-1,9.24-1,9.84c0,1.38.66,1.71,1.44,1.71a4.81,4.81,0,0,0,1.35-.21c.09,0,.21.06.21.27a6.85,6.85,0,0,1-.15,1.11c-.18.75-1.17,1-2,1-1.35,0-3.36-.42-3.36-3.3,0-.9,1-10.41,1-10.41h-1.5c-.42,0-.51-.33-.51-.81s0-1.35.75-1.35h1.5Z" transform="translate(-223.76 -408.11)" style="fill:#19addd"/></svg>